<svg version="1" xmlns="http://www.w3.org/2000/svg" width="1333.333" height="1333.333" viewBox="0 0 1000.000000 1000.000000"><path d="M477.8.5c-.2.1-5.5.5-11.8.9-6.3.3-12.6.8-14 1-1.4.3-5.2.7-8.5 1-8 .8-13.5 1.5-16.5 2.1-2.5.5-6.8 1.2-12.5 2-5.3.7-26.7 5.3-37.5 8-53.3 13.3-112.3 39.6-155.5 69.4-6 4.1-21.4 15.1-23.5 16.8-.8.6-5.1 4-9.5 7.4-4.4 3.4-8.2 6.5-8.5 6.8-.3.4-2.1 1.9-4 3.5-1.9 1.5-7.5 6.5-12.4 11C102.4 186.1 56.3 255.5 28.7 333 21 354.8 12.3 386.5 9 405.5c-.5 2.7-1.2 6.3-1.5 8C5.4 425.4 4.6 431 3.4 442c-.3 3-.7 6.6-1 8-2.5 15.8-2.5 83 .1 100.5.2 1.6.9 7.3 1.5 12.5s1.8 13.5 2.7 18.5c.8 4.9 1.7 9.9 1.8 11 .2 1.1 1.5 7.4 2.9 14 18.5 84.7 59 163.6 117.5 228.5 12.1 13.4 31.2 32.2 42.7 42 1.6 1.4 5.6 4.8 8.9 7.6 10 8.6 30.8 23.9 44.3 32.8 51.5 33.8 112.1 59.4 168.2 71.1 4.5.9 12.4 2.5 15 3 6.2 1.3 23.7 3.9 33 5 3 .4 6.9.8 8.5 1 20.8 2.6 83.2 2.6 100.6 0 1.9-.2 6-.7 9.3-1 3.2-.3 6.1-.7 6.5-.9.3-.2 3.5-.7 7.1-1 3.6-.4 12.4-1.9 19.5-3.3 7.2-1.4 13.9-2.7 15-2.9 5.1-.9 26.5-6.5 30.3-7.8 2.3-.8 4.2-1.3 4.2-1.1 0 .2 7.8-2.3 17.3-5.5 54.2-18.4 106.7-46.8 150.4-81.5 12.1-9.6 12.3-9.7 14.7-12 1.2-1.1 5.7-5.2 10.1-9 12.2-10.8 34.9-33.8 43-43.6 6.3-7.6 12.1-14.5 12.6-14.9 3.5-3.2 32.2-44.1 36.8-52.5 1.2-2.2 3.5-6.2 5.2-8.9 6.4-10.3 20.5-37.9 25.4-49.6 1.5-3.6 3.5-8.3 4.5-10.5 1-2.2 2.1-4.9 2.5-6 5.9-15.3 10.9-29.5 13.6-38.5 1.2-4.1 2.4-8 2.5-8.5.1-.6 1.5-6 3.1-12 2.7-10.1 5.8-23.1 6.7-28 .6-3.5 1.6-8.9 2.1-11.5.3-1.3.7-4.2 1-6.5.3-2.2.8-5.1 1.1-6.5.6-3.3 1.2-8.1 2-15.5.3-3.3.7-7.1 1-8.5 2.6-16.6 2.6-75.2-.1-101-1.4-12.7-3.5-28-5.2-36.5-.2-1.1-.6-3.6-.9-5.5-.3-1.9-2.1-10.3-4-18.5-2-8.3-3.7-15.8-3.9-16.8-.2-1-1.6-5.7-3-10.5-22.9-76-59.4-141.2-110.3-197.1-13-14.3-32-32.8-43.7-42.6-3.3-2.8-6.2-5.3-6.5-5.6-.3-.3-5.7-4.6-12-9.6-39.2-30.5-83.2-55.6-127-72.3-4.7-1.7-9.4-3.6-10.5-4.1-1.1-.4-8.3-2.8-15.9-5.3-22.2-7.3-55-15.2-75.1-18-2.2-.3-5.1-.8-6.5-1.1-1.4-.2-4.4-.7-6.7-1-2.4-.3-6-.7-8-1-4-.5-13.8-1.4-21.3-2.1-5.4-.5-58.8-1.3-59.2-.9zm40.7 72c8.3.3 16.4.8 18 .9 1.7.2 6.4.7 10.5 1.1 4.1.4 8.2.9 9 1 .8.2 5.1.8 9.5 1.5 21.4 3.2 48.6 9.7 70.5 17.1 105.5 35.1 195.2 112.4 245.5 211.5 18.5 36.3 32 75.5 39 113.4.8 4.1 1.7 8.6 1.9 9.9.3 1.4.8 4.5 1.1 7 .3 2.5.7 5.5.9 6.6 3.8 20 4.9 68.8 2.2 96-.2 1.6-.7 6.4-1.1 10.5-.4 4.1-.9 8.4-1.1 9.5-1 5.1-2.6 16.7-2.4 17.5.1.3-.3 1.7-.9 3.1-.5 1.5-1.3 4.7-1.6 7-2.3 15.8-15.3 58.4-24.1 78.8-19.2 44.5-44.3 84.7-74.3 118.6-6.3 7.1-33.4 33.9-40.6 40.1-57.1 49.3-125.1 82.4-199 96.9-1.6.3-4.6.8-6.5 1-1.9.3-4.2.7-5 1-.8.2-3.7.7-6.5 1.1-2.7.3-5.8.8-6.7.9-.9.2-4.8.6-8.5 1-3.7.3-8.1.8-9.8 1-4.4.7-29.8 1.8-39 1.7-9.3 0-32.4-1-37.5-1.6-1.9-.3-6.4-.7-10-1.1-3.6-.3-7.6-.8-9-1-1.4-.3-4.3-.7-6.5-1-2.2-.3-4.7-.7-5.5-.8-.8-.2-3.7-.7-6.5-1.2-2.7-.4-9.9-1.8-16-3.2-6-1.4-11.8-2.6-12.7-2.8-19.8-4-58.7-18.4-85.1-31.5-22.4-11.1-31.1-16.2-51.7-30.1-23.3-15.8-39.1-28.9-61-50.9-16.4-16.4-18.7-18.9-29.1-31.5-23.7-28.7-49.3-70.4-61.8-101-3.2-7.9-5.4-13-7.2-17-.5-1.1-3.5-10.1-6.8-20-7.1-21.9-14.2-51.7-16.6-70-.2-1.7-.6-4.6-.9-6.5-2.1-14.3-3.8-39.8-3.8-56.5 0-13.2 1.5-40.2 2.6-48 .3-2.2.8-6.3 1.1-9 .6-4.5 1-7.4 3-19.5 1.2-6.8 5.6-26.6 7.6-34 1.1-4.1 2.2-8.2 2.4-9 .6-2.7 10.2-31.4 11.8-35 17.2-40 21.5-48.5 37.4-74 17.2-27.5 34.7-49.4 59.8-74.6 32.7-32.8 66.3-57.2 110.5-80.1 6.9-3.6 22.6-10.6 36.5-16.4 2-.8 11.5-4.1 22.5-7.9 23.9-8 53.7-14.6 82-18 13.8-1.7 16.7-1.9 35-2.6 9.6-.3 17.7-.8 17.9-1 .2-.2.7-.2 1 0 .3.2 7.4.7 15.6 1.1z"/><path d="M467.8 132.5c-.1.1-3.7.6-7.8.9-8.8.8-16.2 1.8-23 3-1.4.3-5.3 1-8.7 1.6-14.8 2.6-46.4 12.7-63.3 20.2-35 15.7-58.3 31.2-81.6 54.3-12.3 12.2-18 18.9-27.1 32-11.9 17.1-22.2 36.2-30 55.5-3.3 8.2-9 25.9-9.9 31-.3 1.4-.7 3.2-1 4.1-1 3.3-3.4 18.7-4.1 25.9-1.5 15.2-.9 44.2 1.3 60.5.9 7.1 5.4 27 8.9 40.1 12.7 46.3 32.8 77.4 71.8 110.9 3.2 2.7 6.9 5.9 8.1 7 5.8 5.1 18.5 14.4 32.2 23.6 16.1 10.8 21.4 15.8 25.9 24 6 11.2 6.4 21.2 1.6 40-7.7 29.4-20.3 58.3-37.6 85.9-8.5 13.6-11.5 21.1-11.6 29.8-.3 25.3 13 48.1 39 66.6 10.5 7.4 38.2 20.3 58.5 27 25 8.4 46 11.9 72.1 11.9 11.6.1 28.1-.9 29.5-1.8.3-.2 2.1-.6 4-.9 10.9-1.7 25.9-8 34.5-14.5 5.8-4.4 14.8-13.6 19.9-20.1 4.5-5.9 16-26.8 30.9-56 6.5-12.9 14.1-27.7 16.8-32.8 2.7-5 7.2-13.6 10.1-19 6.7-12.6 12.6-22.3 14.7-24 .9-.7 4-2.4 7-3.8 11.6-5.4 27.2-6.7 58.6-4.9 8.8.5 25.9.9 38 .9 18.1 0 23.2-.3 29-1.8 19.3-5.1 28.4-15.5 28.9-33.1.1-5.7-.7-10-4.4-23l-4.6-16 1.9-3.2c1-1.8 3.6-4 5.7-5 3.4-1.5 4-2.4 4.5-5.8 1.3-8.8.9-13.7-2-23.1-.5-1.5 0-2.5 1.9-3.7 5.9-3.9 7.1-12.1 3.6-25.2-3.8-14.5-4.7-19.1-3.9-21.1 1.1-3.1 4.8-5.9 13.4-10.5 16.8-8.8 22.2-14.8 23.2-25.8 1.2-13.1-4.4-25.1-18.8-40.6-13.1-14.1-33.6-44.9-46-69.2-5.1-10-7-15.8-10.4-31.3-2.5-11.4-6-23.4-9.3-31.6-10.3-25.7-29.2-69.2-37-85.1-9.4-19.1-20.9-35.1-37.1-51.4-28.5-28.6-58.4-46.5-97.4-58.3-9.7-2.9-33.6-8.3-44.7-10-1.9-.3-4.6-.8-6-1.1-1.4-.3-5.6-.8-9.5-1.1-3.8-.3-7.4-.9-7.9-1.2-.9-.5-50.2-1.3-50.8-.7z"/></svg>